<?xml version="1.0" standalone="no"?>
<!DOCTYPE svg PUBLIC "-//W3C//DTD SVG 20010904//EN"
 "http://www.w3.org/TR/2001/REC-SVG-20010904/DTD/svg10.dtd">
<svg version="1.0" xmlns="http://www.w3.org/2000/svg"
 width="268.000000pt" height="268.000000pt" viewBox="0 0 268.000000 268.000000"
 preserveAspectRatio="xMidYMid meet">
<metadata>
Created by potrace 1.11, written by Peter Selinger 2001-2013
</metadata>
<g transform="translate(0.000000,268.000000) scale(0.100000,-0.100000)"
fill="#000000" stroke="none">
<path d="M10 1335 l0 -1335 1335 0 1335 0 0 1335 0 1335 -1335 0 -1335 0 0
-1335z m1355 748 c13 -82 30 -128 67 -184 64 -95 146 -149 261 -170 66 -12 67
-13 72 -48 31 -196 160 -328 346 -356 41 -6 48 -10 53 -35 13 -67 -12 -152
-95 -319 -104 -211 -130 -238 -329 -342 -228 -120 -259 -125 -513 -84 -241 38
-258 48 -443 236 -86 89 -128 140 -147 181 -37 79 -80 342 -75 457 4 82 6 87
89 249 109 213 136 242 324 341 167 89 228 110 317 110 l67 1 6 -37z"/>
<path d="M1175 1661 c-64 -27 -81 -110 -32 -158 60 -61 162 -19 162 67 0 66
-72 116 -130 91z"/>
<path d="M1675 1261 c-64 -27 -81 -110 -32 -158 60 -61 162 -19 162 67 0 66
-72 116 -130 91z"/>
<path d="M1075 1161 c-64 -27 -81 -110 -32 -158 60 -61 162 -19 162 67 0 66
-72 116 -130 91z"/>
</g>
</svg>
